<svg width="329" height="40" viewBox="0 0 329 40" fill="none" xmlns="http://www.w3.org/2000/svg">
<path d="M25.2729 20.9863H22.8271V23.9844H25.2729V20.9863Z" fill="#1F3347"/>
<path d="M25.2729 27.7715H22.8271V34.3987H25.2729V27.7715Z" fill="#1F3347"/>
<path d="M16.91 5.44336V5.52225C16.91 5.49622 16.91 5.46939 16.9092 5.44336H16.91Z" fill="#1F3347"/>
<path d="M28.2708 3.5503C28.2708 5.00434 27.3966 6.25483 26.1445 6.80316C25.6688 7.01144 25.3516 7.4714 25.3516 7.99053V15.9369H22.827V7.17949C22.827 6.9783 22.8506 6.78343 22.8948 6.59566C23.1118 5.6789 23.8289 4.95542 24.7426 4.72899C24.8207 4.72189 24.8972 4.7069 24.9698 4.68402C24.9698 4.68402 24.9703 4.68376 24.9713 4.68323C25.4431 4.5357 25.7792 4.08047 25.7437 3.55266C25.7043 2.96805 25.1978 2.52465 24.6124 2.52465H22.3291C21.8132 2.52465 21.3698 2.79606 21.1852 3.22367C21.1244 3.36174 21.0913 3.51637 21.0913 3.68363V36.1034C21.0913 36.774 21.6349 37.3176 22.3055 37.3176H23.0637V40H22.3938C20.3236 40 18.6455 38.3219 18.6455 36.2517V3.64339C18.6455 1.66312 20.2266 0.0504934 22.1958 0.00157825C22.2266 3.37113e-07 22.2573 0 22.2889 0H24.7205C25.8818 0 26.913 0.557791 27.5607 1.41933C28.0065 2.01341 28.2708 2.75108 28.2708 3.5503Z" fill="#1F3347"/>
<path d="M27.7976 15.9365H22.8271V18.5401H27.7976V15.9365Z" fill="#1F3347"/>
<path d="M22.8271 9.5459H30.1644V11.5435C30.1644 11.8347 29.9285 12.0706 29.6374 12.0706H22.8271V9.5459Z" fill="#1F3347"/>
<path d="M24.9704 4.68359C24.8978 4.70647 24.8213 4.72146 24.7432 4.72856C24.8173 4.70963 24.8931 4.69464 24.9704 4.68359Z" fill="#1F3347"/>
<path d="M24.9704 4.68359C24.8978 4.70647 24.8213 4.72146 24.7432 4.72856C24.8173 4.70963 24.8931 4.69464 24.9704 4.68359Z" fill="#1E3346"/>
<path d="M22.2894 0C22.2578 0 22.2271 3.37113e-07 22.1963 0.00157825V0H22.2894Z" fill="#1F3346"/>
<path d="M24.9704 4.68359C24.8978 4.70647 24.8213 4.72146 24.7432 4.72856C24.8173 4.70963 24.8931 4.69464 24.9704 4.68359Z" fill="#3397D6"/>
<path d="M44.1785 18.0568C43.9994 17.8391 43.7943 17.6489 43.5678 17.4967C43.3659 17.361 43.197 17.1827 43.0455 16.9917C42.7205 16.5807 42.2148 16.3203 41.6483 16.3314C40.7552 16.3487 40.0081 17.0612 39.9513 17.9535C39.8866 18.9633 40.6874 19.8028 41.683 19.8028H41.6909C42.0783 19.802 42.3931 20.116 42.3931 20.5034V24.5988C42.3931 26.2635 41.0432 27.6134 39.3785 27.6134H34.1879V26.6004C34.1879 26.0702 34.6171 25.6411 35.1473 25.6411H38.5272V23.1164H34.7568C33.0921 23.1164 31.7422 24.4663 31.7422 26.131V30.1381H39.0148C42.2747 30.1381 44.9177 27.4951 44.9177 24.2351V20.0395C44.9177 19.342 44.6353 18.613 44.1785 18.0568ZM41.683 18.6517C41.3603 18.6517 41.0984 18.3898 41.0984 18.0671C41.0984 17.7444 41.3603 17.4825 41.683 17.4825C42.0057 17.4825 42.2676 17.7444 42.2676 18.0671C42.2676 18.3898 42.0057 18.6517 41.683 18.6517Z" fill="#1F3348"/>
<path d="M30.3999 22.4563C30.4457 22.4263 30.4954 22.4011 30.5467 22.3806C31.4832 21.9979 32.0654 21.317 32.3581 20.3924C32.4212 20.1904 32.4528 19.9798 32.4528 19.7683V16.0965C32.4528 15.3115 33.0895 14.6748 33.8745 14.6748H39.0011V12.0713H34.0346C31.7664 12.0713 29.9281 13.9096 29.9281 16.1778V19.1372C29.9281 19.7344 29.5447 20.237 29.0974 20.3877C28.7202 20.5155 28.3589 20.693 28.0686 20.9644C27.5841 21.4172 27.2701 22.0019 27.1281 22.7206C27.1005 22.8626 27.0879 23.007 27.0879 23.1514V31.9742C27.0879 33.3565 28.209 34.4776 29.5912 34.4776C29.7735 34.4776 29.9321 34.5944 29.9928 34.7664C30.3605 35.807 31.3916 36.536 32.5782 36.4421C33.8122 36.3451 34.8062 35.3407 34.8922 34.1052C34.9948 32.6299 33.8271 31.4007 32.3739 31.4007C31.8051 31.4007 31.2812 31.5885 30.8591 31.9056C30.5924 32.106 30.2129 32.08 29.9739 31.8472C29.7995 31.6776 29.6914 31.4409 29.6914 31.179V23.4046C29.6914 22.9628 30.1987 22.5881 30.3999 22.4563ZM32.3739 33.0346C32.8662 33.0346 33.2646 33.433 33.2646 33.9253C33.2646 34.4176 32.8662 34.8161 32.3739 34.8161C31.8816 34.8161 31.4832 34.4176 31.4832 33.9253C31.4832 33.433 31.8816 33.0346 32.3739 33.0346Z" fill="#1F3348"/>
<path d="M0.664101 16.3311L0.5 17.4356C0.5 17.0514 0.556804 16.6806 0.664101 16.3311Z" fill="#1F3348"/>
<path d="M8.07037 17.2919C7.94651 17.5578 7.67669 17.7416 7.36347 17.7416C6.9327 17.7416 6.58398 17.3929 6.58398 16.9621C6.58398 16.5313 6.9327 16.1826 7.36347 16.1826C7.59227 16.1826 7.7974 16.2804 7.9402 16.4367C8.01515 16.7104 8.06012 16.9968 8.07037 17.2919Z" fill="#203346"/>
<path d="M14.4643 32.8994V32.9302C14.4556 32.9199 14.447 32.9097 14.4375 32.8994H14.4643Z" fill="#1D3348"/>
<path d="M16.9089 5.44305C16.867 3.99768 15.6828 2.8395 14.2272 2.8395H14.1956C13.9945 2.8395 13.7956 2.78269 13.6292 2.66908C13.3239 2.46001 12.9483 2.34561 12.5444 2.36928C11.6789 2.41978 10.9728 3.12195 10.9168 3.98743C10.8521 4.99808 11.6521 5.83753 12.6485 5.83753C12.9893 5.83753 13.3065 5.7397 13.5747 5.57007C13.6221 5.54009 13.6765 5.52195 13.7333 5.52195H13.7396C14.1388 5.52195 14.4631 5.84621 14.4631 6.24542V9.8612H16.9089V5.52195C16.9089 5.49591 16.9089 5.46909 16.9081 5.44305H16.9089ZM12.7282 4.70853C12.7022 4.71248 12.6761 4.71406 12.6493 4.71406C12.3108 4.71406 12.0371 4.44029 12.0371 4.10183C12.0371 3.76337 12.3108 3.4896 12.6493 3.4896C12.6761 3.4896 12.7022 3.49118 12.7282 3.49512C13.0296 3.53378 13.2615 3.79019 13.2615 4.10183C13.2615 4.41346 13.0296 4.66987 12.7282 4.70853Z" fill="#1F3347"/>
<path d="M13.2616 4.10149C13.2616 4.41312 13.0296 4.66953 12.7282 4.70819C12.7022 4.71214 12.6762 4.71371 12.6493 4.71371C12.3109 4.71371 12.0371 4.43995 12.0371 4.10149C12.0371 3.76302 12.3109 3.48926 12.6493 3.48926C12.6762 3.48926 12.7022 3.49084 12.7282 3.49478C13.0296 3.53344 13.2616 3.78985 13.2616 4.10149Z" fill="#3596D5"/>
<path d="M7.83674 11.6764C9.31822 11.6764 10.5192 10.4754 10.5192 8.99397C10.5192 7.5125 9.31822 6.31152 7.83674 6.31152C6.35527 6.31152 5.1543 7.5125 5.1543 8.99397C5.1543 10.4754 6.35527 11.6764 7.83674 11.6764Z" fill="#1F3348"/>
<path d="M7.83639 9.94037C8.35927 9.94037 8.78314 9.51649 8.78314 8.99362C8.78314 8.47075 8.35927 8.04688 7.83639 8.04688C7.31352 8.04688 6.88965 8.47075 6.88965 8.99362C6.88965 9.51649 7.31352 9.94037 7.83639 9.94037Z" fill="#3396D5"/>
<path d="M33.3622 5.19782C33.4435 4.69676 33.1032 4.22463 32.6022 4.1433C32.1011 4.06196 31.629 4.40222 31.5477 4.90329C31.4663 5.40435 31.8066 5.87648 32.3076 5.95782C32.8087 6.03915 33.2808 5.69889 33.3622 5.19782Z" fill="#1F3348"/>
<path d="M33.3622 5.19782C33.4435 4.69676 33.1032 4.22463 32.6022 4.1433C32.1011 4.06196 31.629 4.40222 31.5477 4.90329C31.4663 5.40435 31.8066 5.87648 32.3076 5.95782C32.8087 6.03915 33.2808 5.69889 33.3622 5.19782Z" fill="#3396D5"/>
<path d="M40.2636 15.1472C41.5272 15.1472 42.5515 14.1229 42.5515 12.8593C42.5515 11.5956 41.5272 10.5713 40.2636 10.5713C38.9999 10.5713 37.9756 11.5956 37.9756 12.8593C37.9756 14.1229 38.9999 15.1472 40.2636 15.1472Z" fill="#1F3348"/>
<path d="M40.2639 13.6675C40.7101 13.6675 41.0718 13.3058 41.0718 12.8596C41.0718 12.4135 40.7101 12.0518 40.2639 12.0518C39.8178 12.0518 39.4561 12.4135 39.4561 12.8596C39.4561 13.3058 39.8178 13.6675 40.2639 13.6675Z" fill="#3396D5"/>
<path d="M7.75862 26.3512C9.24009 26.3512 10.4411 25.1502 10.4411 23.6688C10.4411 22.1873 9.24009 20.9863 7.75862 20.9863C6.27714 20.9863 5.07617 22.1873 5.07617 23.6688C5.07617 25.1502 6.27714 26.3512 7.75862 26.3512Z" fill="#1F3348"/>
<path d="M7.75827 24.6152C8.28114 24.6152 8.70501 24.1913 8.70501 23.6684C8.70501 23.1456 8.28114 22.7217 7.75827 22.7217C7.2354 22.7217 6.81152 23.1456 6.81152 23.6684C6.81152 24.1913 7.2354 24.6152 7.75827 24.6152Z" fill="#3396D5"/>
<path d="M32.7146 34.7483C33.1691 34.5601 33.3849 34.039 33.1967 33.5846C33.0084 33.1301 32.4874 32.9142 32.0329 33.1025C31.5784 33.2907 31.3626 33.8118 31.5508 34.2663C31.7391 34.7208 32.2601 34.9366 32.7146 34.7483Z" fill="#1F3348"/>
<path d="M32.7146 34.7483C33.1691 34.5601 33.3849 34.039 33.1967 33.5846C33.0084 33.1301 32.4874 32.9142 32.0329 33.1025C31.5784 33.2907 31.3626 33.8118 31.5508 34.2663C31.7391 34.7208 32.2601 34.9366 32.7146 34.7483Z" fill="#3396D5"/>
<path d="M8.14394 16.9631C8.14394 17.0806 8.1179 17.1927 8.07135 17.2929C7.94749 17.5587 7.67766 17.7426 7.36445 17.7426C6.93368 17.7426 6.58496 17.3939 6.58496 16.9631C6.58496 16.5323 6.93368 16.1836 7.36445 16.1836C7.59325 16.1836 7.79837 16.2814 7.94117 16.4376C8.06741 16.5765 8.14394 16.7611 8.14394 16.9631Z" fill="#3396D6"/>
<path d="M8.14394 16.9631C8.14394 17.0806 8.1179 17.1927 8.07135 17.2929C7.94749 17.5587 7.67766 17.7426 7.36445 17.7426C6.93368 17.7426 6.58496 17.3939 6.58496 16.9631C6.58496 16.5323 6.93368 16.1836 7.36445 16.1836C7.59325 16.1836 7.79837 16.2814 7.94117 16.4376C8.06741 16.5765 8.14394 16.7611 8.14394 16.9631Z" fill="#3396D6"/>
<path d="M36.3179 21.4601C37.233 21.4601 37.9747 20.7183 37.9747 19.8033C37.9747 18.8883 37.233 18.1465 36.3179 18.1465C35.4029 18.1465 34.6611 18.8883 34.6611 19.8033C34.6611 20.7183 35.4029 21.4601 36.3179 21.4601Z" fill="#1F3348"/>
<path d="M36.318 20.388C36.6409 20.388 36.9026 20.1262 36.9026 19.8034C36.9026 19.4805 36.6409 19.2188 36.318 19.2188C35.9951 19.2188 35.7334 19.4805 35.7334 19.8034C35.7334 20.1262 35.9951 20.388 36.318 20.388Z" fill="#3396D5"/>
<path d="M41.9065 18.6065C42.2048 18.4829 42.3465 18.141 42.2229 17.8427C42.0993 17.5444 41.7574 17.4027 41.4591 17.5263C41.1608 17.6498 41.0191 17.9918 41.1427 18.2901C41.2662 18.5884 41.6082 18.7301 41.9065 18.6065Z" fill="#1F3348"/>
<path d="M41.9065 18.6065C42.2048 18.4829 42.3465 18.141 42.2229 17.8427C42.0993 17.5444 41.7574 17.4027 41.4591 17.5263C41.1608 17.6498 41.0191 17.9918 41.1427 18.2901C41.2662 18.5884 41.6082 18.7301 41.9065 18.6065Z" fill="#3396D5"/>
<path d="M13.5972 26.2716C14.5123 26.2716 15.254 25.5298 15.254 24.6148C15.254 23.6998 14.5123 22.958 13.5972 22.958C12.6822 22.958 11.9404 23.6998 11.9404 24.6148C11.9404 25.5298 12.6822 26.2716 13.5972 26.2716Z" fill="#1F3348"/>
<path d="M13.5973 25.1995C13.9202 25.1995 14.1819 24.9378 14.1819 24.6149C14.1819 24.292 13.9202 24.0303 13.5973 24.0303C13.2744 24.0303 13.0127 24.292 13.0127 24.6149C13.0127 24.9378 13.2744 25.1995 13.5973 25.1995Z" fill="#3396D5"/>
<path d="M12.9534 20.0274C13.2517 19.9038 13.3933 19.5619 13.2698 19.2636C13.1462 18.9653 12.8042 18.8236 12.5059 18.9472C12.2076 19.0707 12.066 19.4127 12.1895 19.711C12.3131 20.0093 12.6551 20.151 12.9534 20.0274Z" fill="#1F3348"/>
<path d="M12.9534 20.0274C13.2517 19.9038 13.3933 19.5619 13.2698 19.2636C13.1462 18.9653 12.8042 18.8236 12.5059 18.9472C12.2076 19.0707 12.066 19.4127 12.1895 19.711C12.3131 20.0093 12.6551 20.151 12.9534 20.0274Z" fill="#3396D5"/>
<path d="M39.2374 25.7981C40.2396 25.7981 41.052 24.9857 41.052 23.9835C41.052 22.9814 40.2396 22.1689 39.2374 22.1689C38.2353 22.1689 37.4229 22.9814 37.4229 23.9835C37.4229 24.9857 38.2353 25.7981 39.2374 25.7981Z" fill="#1F3348"/>
<path d="M39.2373 24.624C39.5911 24.624 39.8779 24.3372 39.8779 23.9834C39.8779 23.6296 39.5911 23.3428 39.2373 23.3428C38.8835 23.3428 38.5967 23.6296 38.5967 23.9834C38.5967 24.3372 38.8835 24.624 39.2373 24.624Z" fill="#3396D5"/>
<path d="M29.849 12.071C30.8076 12.071 31.5847 11.2939 31.5847 10.3353C31.5847 9.37671 30.8076 8.59961 29.849 8.59961C28.8904 8.59961 28.1133 9.37671 28.1133 10.3353C28.1133 11.2939 28.8904 12.071 29.849 12.071Z" fill="#1F3348"/>
<path d="M29.8495 10.9471C30.1877 10.9471 30.4618 10.673 30.4618 10.3349C30.4618 9.99676 30.1877 9.72266 29.8495 9.72266C29.5114 9.72266 29.2373 9.99676 29.2373 10.3349C29.2373 10.673 29.5114 10.9471 29.8495 10.9471Z" fill="#3396D5"/>
<path d="M34.9244 5.87196C35.0191 5.58794 35.0656 5.28182 35.0554 4.96309C35.0112 3.6053 33.9035 2.49445 32.5457 2.4479C30.9993 2.39425 29.7418 3.68892 29.8569 5.2479C29.9421 6.40056 30.7997 7.36703 31.9319 7.60056C32.0865 7.63212 32.2388 7.64948 32.3871 7.65263C32.7082 7.66052 33.0096 7.80727 33.2242 8.04632L33.5453 8.40372C33.7299 8.60963 33.8546 8.86131 33.9137 9.13192C34.0928 9.94691 34.8431 10.5465 35.7228 10.4905C36.6025 10.4345 37.2873 9.73232 37.341 8.8692C37.3993 7.92956 36.7098 7.13823 35.8104 7.03409C35.6668 7.01752 35.535 6.94494 35.4356 6.84001L35.0419 6.42344C34.9031 6.2767 34.8597 6.06526 34.9236 5.87354L34.9244 5.87196ZM32.4534 5.96821C31.9461 5.96821 31.5343 5.55638 31.5343 5.04908C31.5343 4.54178 31.9461 4.12995 32.4534 4.12995C32.9607 4.12995 33.3725 4.54178 33.3725 5.04908C33.3725 5.55638 32.9607 5.96821 32.4534 5.96821ZM35.6092 9.3694C35.2707 9.3694 34.997 9.09563 34.997 8.75717C34.997 8.41871 35.2707 8.14494 35.6092 8.14494C35.9477 8.14494 36.2214 8.41871 36.2214 8.75717C36.2214 9.09563 35.9477 9.3694 35.6092 9.3694Z" fill="#1F3348"/>
<path d="M35.6093 9.36899C35.9474 9.36899 36.2215 9.09489 36.2215 8.75676C36.2215 8.41864 35.9474 8.14453 35.6093 8.14453C35.2712 8.14453 34.9971 8.41864 34.9971 8.75676C34.9971 9.09489 35.2712 9.36899 35.6093 9.36899Z" fill="#1F3348"/>
<path d="M35.6093 9.36899C35.9474 9.36899 36.2215 9.09489 36.2215 8.75676C36.2215 8.41864 35.9474 8.14453 35.6093 8.14453C35.2712 8.14453 34.9971 8.41864 34.9971 8.75676C34.9971 9.09489 35.2712 9.36899 35.6093 9.36899Z" fill="#3396D5"/>
<path d="M25.7472 39.8421C26.7494 39.8421 27.5618 39.0297 27.5618 38.0275C27.5618 37.0253 26.7494 36.2129 25.7472 36.2129C24.745 36.2129 23.9326 37.0253 23.9326 38.0275C23.9326 39.0297 24.745 39.8421 25.7472 39.8421Z" fill="#1F3348"/>
<path d="M25.7471 38.668C26.1009 38.668 26.3877 38.3812 26.3877 38.0273C26.3877 37.6735 26.1009 37.3867 25.7471 37.3867C25.3933 37.3867 25.1064 37.6735 25.1064 38.0273C25.1064 38.3812 25.3933 38.668 25.7471 38.668Z" fill="#3396D5"/>
<path d="M12.8864 34.9651C13.2864 34.9651 13.6106 34.6409 13.6106 34.2409C13.6106 33.8409 13.2864 33.5166 12.8864 33.5166C12.4864 33.5166 12.1621 33.8409 12.1621 34.2409C12.1621 34.6409 12.4864 34.9651 12.8864 34.9651Z" fill="#1F3348"/>
<path d="M12.8864 34.9651C13.2864 34.9651 13.6106 34.6409 13.6106 34.2409C13.6106 33.8409 13.2864 33.5166 12.8864 33.5166C12.4864 33.5166 12.1621 33.8409 12.1621 34.2409C12.1621 34.6409 12.4864 34.9651 12.8864 34.9651Z" fill="#3396D5"/>
<path d="M14.2396 18.3829C14.0748 18.3829 13.9178 18.3222 13.7915 18.2165C13.4964 17.9687 13.1122 17.8228 12.6949 17.8307C11.8365 17.848 11.1193 18.5415 11.0744 19.3983C11.0239 20.3537 11.7836 21.1443 12.7288 21.1443C13.0365 21.1443 13.3252 21.0606 13.5714 20.9139C13.6629 20.8602 13.7663 20.8287 13.872 20.8287H14.1884C14.2799 20.8413 14.3604 20.8713 14.4298 20.9178C14.5852 21.0196 14.7706 21.0654 14.956 21.0654H16.9103V14.551C16.9103 13.1813 15.8002 12.0713 14.4306 12.0713H13.0444V12.0737L13.042 12.0713H12.7059C12.0179 12.0713 11.3576 12.3411 10.8661 12.8232L9.04753 14.607C8.77456 14.8744 8.37771 14.9636 8.01243 14.8516C7.8073 14.7884 7.58955 14.7545 7.3639 14.7545C7.23688 14.7545 7.11223 14.7656 6.99152 14.7861C6.30434 14.0847 5.34655 13.65 4.28698 13.65C2.57968 13.65 1.1359 14.7798 0.664101 16.3324L0.5 17.437V24.5644C0.5 27.6871 3.03097 30.218 6.15365 30.218H13.2463C13.9193 30.218 14.4645 30.7632 14.4645 31.4362V32.8468C14.4203 32.8634 14.4527 32.8516 14.4085 32.8673C14.0164 32.4326 13.4396 32.166 12.8014 32.192C11.7615 32.2346 10.9039 33.0725 10.8392 34.1107C10.7651 35.3028 11.7103 36.293 12.8866 36.293C13.188 36.293 13.4736 36.2283 13.7316 36.1115C13.9154 36.0271 14.1134 35.9774 14.3162 35.9774H14.3509C15.7647 35.9774 16.9103 34.8318 16.9103 33.418V30.9833C16.9103 29.1664 15.4373 27.6934 13.6203 27.6934H6.14497C4.33432 27.6934 2.86686 26.2259 2.86686 24.4153V17.3123C2.86686 16.6662 3.37179 16.1139 4.01795 16.0965C4.53866 16.0823 4.98521 16.4042 5.15799 16.861C5.15562 16.895 5.15483 16.9289 5.15483 16.9636C5.15483 17.1419 5.17613 17.3155 5.21637 17.4812C5.44911 18.4516 6.32248 19.1727 7.3639 19.1727C7.46568 19.1727 7.56588 19.1656 7.6645 19.1522C8.42268 19.0496 9.05858 18.5612 9.36864 17.8922C9.40335 17.8172 9.45306 17.7494 9.51223 17.6918L12.2822 14.9746C12.5805 14.6819 12.9821 14.5178 13.4002 14.5178H13.7671C14.1529 14.5178 14.4653 14.8303 14.4653 15.2161V18.3837H14.2404L14.2396 18.3829ZM12.7288 20.0721C12.4061 20.0721 12.1442 19.8101 12.1442 19.4875C12.1442 19.1648 12.4061 18.9028 12.7288 18.9028C13.0515 18.9028 13.3134 19.1648 13.3134 19.4875C13.3134 19.8101 13.0515 20.0721 12.7288 20.0721ZM12.8866 34.9652C12.4866 34.9652 12.1623 34.6409 12.1623 34.2409C12.1623 33.8409 12.4866 33.5167 12.8866 33.5167C13.2866 33.5167 13.6108 33.8409 13.6108 34.2409C13.6108 34.6409 13.2866 34.9652 12.8866 34.9652ZM8.07081 17.2926C7.94694 17.5585 7.67712 17.7423 7.3639 17.7423C6.93314 17.7423 6.58442 17.3936 6.58442 16.9628C6.58442 16.532 6.93314 16.1833 7.3639 16.1833C7.5927 16.1833 7.79783 16.2812 7.94063 16.4374C8.06686 16.5762 8.14339 16.7608 8.14339 16.9628C8.14339 17.0804 8.11736 17.1924 8.07081 17.2926Z" fill="#203346"/>
<path d="M63.4371 30.089L56.9503 9.29087C56.8098 8.84394 57.145 8.39062 57.6143 8.39062H61.129C61.4355 8.39062 61.7069 8.59174 61.7931 8.88863L66.6773 25.3547C66.8082 25.7985 66.4762 26.2454 66.0133 26.2454H65.9207C65.4579 26.2454 65.1259 25.8016 65.2535 25.3579L70.0197 8.89182C70.1059 8.59494 70.3773 8.39062 70.6869 8.39062H73.5664C73.8761 8.39062 74.1474 8.59494 74.2336 8.89182L78.9998 25.3579C79.1275 25.8016 78.7954 26.2454 78.3326 26.2454H78.2687C77.8058 26.2454 77.4706 25.7985 77.6015 25.3547L82.4571 8.88863C82.5433 8.59493 82.8146 8.39062 83.1243 8.39062H86.6071C87.0764 8.39062 87.4084 8.84394 87.2711 9.29087L80.7843 30.089C80.5034 30.9892 79.6701 31.6021 78.7252 31.6021H78.0037C77.046 31.6021 76.2033 30.97 75.9351 30.0506L71.4467 14.638C71.3158 14.1943 71.651 13.7506 72.1139 13.7506C72.5768 13.7506 72.9088 14.1943 72.7811 14.638L68.2927 30.0506C68.0245 30.97 67.1817 31.6021 66.224 31.6021H65.5025C64.5608 31.6021 63.7244 30.9892 63.4435 30.089H63.4371Z" fill="#1C354B"/>
<path d="M172.617 30.089L166.13 9.29087C165.99 8.84394 166.325 8.39062 166.794 8.39062H170.309C170.615 8.39062 170.887 8.59174 170.973 8.88863L175.857 25.3547C175.988 25.7985 175.656 26.2454 175.193 26.2454H175.1C174.638 26.2454 174.306 25.8016 174.433 25.3579L179.199 8.89182C179.286 8.59494 179.557 8.39062 179.867 8.39062H182.746C183.056 8.39062 183.327 8.59494 183.413 8.89182L188.179 25.3579C188.307 25.8016 187.975 26.2454 187.512 26.2454H187.448C186.986 26.2454 186.65 25.7985 186.781 25.3547L191.637 8.88863C191.723 8.59493 191.994 8.39062 192.304 8.39062H195.787C196.256 8.39062 196.588 8.84394 196.451 9.29087L189.964 30.089C189.683 30.9892 188.85 31.6021 187.905 31.6021H187.183C186.226 31.6021 185.383 30.97 185.115 30.0506L180.626 14.638C180.495 14.1943 180.831 13.7506 181.294 13.7506C181.756 13.7506 182.088 14.1943 181.961 14.638L177.472 30.0506C177.204 30.97 176.361 31.6021 175.404 31.6021H174.682C173.741 31.6021 172.904 30.9892 172.623 30.089H172.617Z" fill="#1C354B"/>
<path d="M102.096 32C100.395 32 98.8271 31.6935 97.3906 31.0806C95.954 30.4677 94.6962 29.6121 93.6109 28.5171C92.5255 27.4222 91.6859 26.1452 91.0921 24.6863C90.4951 23.2274 90.1982 21.6568 90.1982 19.9681C90.1982 18.2793 90.4951 16.68 91.0921 15.2338C91.6859 13.7877 92.5159 12.5204 93.5789 11.435C94.642 10.3496 95.8902 9.50677 97.3267 8.90342C98.7633 8.30007 100.331 8 102.032 8C103.734 8 105.269 8.30007 106.706 8.90342C108.142 9.50677 109.397 10.3496 110.47 11.435C111.542 12.5204 112.379 13.7909 112.972 15.2498C113.566 16.7087 113.866 18.2921 113.866 20C113.866 21.7079 113.569 23.2594 112.972 24.7183C112.375 26.1772 111.549 27.4477 110.486 28.5331C109.423 29.6185 108.174 30.4677 106.738 31.0806C105.301 31.6935 103.756 32 102.096 32ZM102.032 27.2977C103.373 27.2977 104.548 26.9912 105.557 26.3783C106.565 25.7654 107.347 24.9034 107.9 23.7957C108.452 22.6879 108.73 21.411 108.73 19.9649C108.73 18.8699 108.57 17.8771 108.251 16.9896C107.932 16.1021 107.475 15.336 106.878 14.688C106.281 14.0399 105.576 13.5483 104.755 13.2067C103.935 12.8683 103.028 12.6959 102.029 12.6959C100.688 12.6959 99.5135 12.996 98.5047 13.5994C97.4959 14.2027 96.7138 15.0455 96.1615 16.1309C95.6093 17.2163 95.3315 18.4932 95.3315 19.9617C95.3315 21.0567 95.4911 22.0559 95.8104 22.9529C96.1296 23.8531 96.5797 24.6257 97.1671 25.2705C97.7513 25.9186 98.46 26.4166 99.29 26.7678C100.12 27.1189 101.033 27.2945 102.032 27.2945V27.2977Z" fill="#1C354B"/>
<path d="M118.969 30.9126V9.08018C118.969 8.70029 119.278 8.39062 119.658 8.39062H123.285C123.665 8.39062 123.974 8.70029 123.974 9.08018V30.9126C123.974 31.2925 123.665 31.6021 123.285 31.6021H119.658C119.278 31.6021 118.969 31.2925 118.969 30.9126ZM122.796 21.3451V18.9126C122.796 18.5327 123.106 18.223 123.486 18.223H127.55C128.549 18.223 129.318 17.9613 129.861 17.4345C130.404 16.9078 130.675 16.1959 130.675 15.2957C130.675 14.4625 130.41 13.7729 129.877 13.2238C129.344 12.6747 128.581 12.4002 127.578 12.4002H123.483C123.103 12.4002 122.793 12.0906 122.793 11.7107V9.08018C122.793 8.70029 123.103 8.39062 123.483 8.39062H128.153C129.641 8.39062 130.95 8.68112 132.076 9.26213C133.203 9.84313 134.084 10.6476 134.723 11.6787C135.361 12.7099 135.681 13.8942 135.681 15.2286C135.681 16.563 135.361 17.7761 134.723 18.7976C134.084 19.816 133.191 20.6109 132.045 21.1823C130.895 21.7538 129.545 22.0379 127.993 22.0379H123.483C123.103 22.0379 122.793 21.7282 122.793 21.3483L122.796 21.3451ZM131.013 31.3116L124.763 22.4082C124.488 22.0187 124.683 21.4728 125.143 21.3451L128.338 20.4545C128.613 20.3778 128.91 20.48 129.079 20.7099L136.338 30.504C136.677 30.9605 136.351 31.6053 135.783 31.6053H131.578C131.355 31.6053 131.141 31.4968 131.013 31.3116Z" fill="#1C354B"/>
<path d="M141.234 30.721V9.27171C141.234 8.78329 141.63 8.39062 142.115 8.39062H146.243V31.6053H142.115C141.627 31.6053 141.234 31.2095 141.234 30.7242V30.721ZM144.615 31.6021V27.0658H150.198C151.558 27.0658 152.749 26.7849 153.771 26.2262C154.792 25.6676 155.578 24.8503 156.13 23.7777C156.682 22.7051 156.96 21.4313 156.96 19.9629C156.96 18.4944 156.679 17.2334 156.114 16.1831C155.549 15.1297 154.764 14.3188 153.752 13.7506C152.743 13.1791 151.555 12.895 150.195 12.895H144.452V8.39062H150.259C151.961 8.39062 153.528 8.67155 154.965 9.23021C156.401 9.78887 157.656 10.5902 158.728 11.6309C159.801 12.6716 160.631 13.9006 161.215 15.3148C161.799 16.729 162.093 18.2901 162.093 20.0012C162.093 21.7123 161.799 23.2446 161.215 24.6716C160.631 26.0953 159.807 27.3244 158.744 28.3555C157.681 29.3866 156.43 30.1847 154.997 30.7562C153.56 31.3276 152.002 31.6117 150.323 31.6117H144.612L144.615 31.6021Z" fill="#1C354B"/>
<path d="M211.004 32C209.303 32 207.735 31.6935 206.299 31.0806C204.862 30.4677 203.604 29.6121 202.519 28.5171C201.434 27.4222 200.594 26.1452 200 24.6863C199.403 23.2274 199.106 21.6568 199.106 19.9681C199.106 18.2793 199.403 16.68 200 15.2338C200.594 13.7877 201.424 12.5204 202.487 11.435C203.55 10.3496 204.802 9.50677 206.235 8.90342C207.668 8.30007 209.239 8 210.94 8C212.642 8 214.177 8.30007 215.614 8.90342C217.051 9.50677 218.305 10.3496 219.378 11.435C220.45 12.5204 221.287 13.7909 221.881 15.2498C222.474 16.7087 222.774 18.2921 222.774 20C222.774 21.7079 222.478 23.2594 221.881 24.7183C221.284 26.1772 220.457 27.4477 219.394 28.5331C218.331 29.6185 217.079 30.4677 215.646 31.0806C214.209 31.6935 212.664 32 211.004 32ZM210.94 27.2977C212.281 27.2977 213.456 26.9912 214.465 26.3783C215.474 25.7654 216.256 24.9034 216.808 23.7957C217.36 22.6879 217.638 21.411 217.638 19.9649C217.638 18.8699 217.478 17.8771 217.159 16.9896C216.84 16.1021 216.383 15.336 215.786 14.688C215.189 14.0399 214.484 13.5483 213.664 13.2067C212.843 12.8683 211.936 12.6959 210.937 12.6959C209.596 12.6959 208.422 12.996 207.413 13.5994C206.401 14.2027 205.622 15.0455 205.07 16.1309C204.517 17.2163 204.24 18.4932 204.24 19.9617C204.24 21.0567 204.399 22.0559 204.719 22.9529C205.038 23.8531 205.488 24.6257 206.075 25.2705C206.66 25.9186 207.368 26.4166 208.198 26.7678C209.028 27.1189 209.941 27.2945 210.94 27.2945V27.2977Z" fill="#1C354B"/>
<path d="M227.883 30.9151V9.08267C227.883 8.70278 228.192 8.39311 228.572 8.39311H232.892V30.9151C232.892 31.2949 232.582 31.6046 232.202 31.6046H228.576C228.196 31.6046 227.886 31.2949 227.886 30.9151H227.883ZM231.71 22.0372V18.2223H236.464C237.463 18.2223 238.236 17.9605 238.778 17.4338C239.321 16.9071 239.592 16.1952 239.592 15.2949C239.592 14.4617 239.327 13.7722 238.794 13.2231C238.261 12.674 237.498 12.3995 236.496 12.3995H231.71V8.38672H237.07C238.558 8.38672 239.867 8.67723 240.994 9.25824C242.121 9.83925 243.002 10.6437 243.64 11.6748C244.279 12.706 244.598 13.8903 244.598 15.2247C244.598 16.5591 244.279 17.7722 243.64 18.7938C243.002 19.8121 242.108 20.607 240.962 21.1784C239.813 21.7498 238.462 22.034 236.911 22.034H231.71V22.0372ZM239.928 31.3109L233.115 21.6094L237.709 20.3261L245.249 30.5032C245.588 30.9598 245.262 31.6046 244.694 31.6046H240.489C240.266 31.6046 240.052 31.4961 239.924 31.3109H239.928Z" fill="#1C354B"/>
<path d="M250.148 31.2343V8.75704C250.148 8.55273 250.314 8.38672 250.519 8.38672H254.79C254.994 8.38672 255.16 8.55273 255.16 8.75704V31.2343C255.16 31.4386 254.994 31.6046 254.79 31.6046H250.519C250.314 31.6046 250.148 31.4386 250.148 31.2343ZM263.658 31.4578L254.646 19.5056L263.371 8.53038C263.441 8.44099 263.547 8.38991 263.658 8.38991H268.887C269.2 8.38991 269.37 8.75385 269.172 8.99327L260.37 19.6653C260.15 19.9334 259.716 19.777 259.716 19.429C259.716 19.0779 260.16 18.9246 260.377 19.2024L269.529 31.0076C269.717 31.2502 269.545 31.6014 269.239 31.6014H263.955C263.84 31.6014 263.732 31.5471 263.662 31.4546L263.658 31.4578Z" fill="#1C354B"/>
<path d="M279.977 31.9689C278.126 31.9689 276.536 31.6561 275.208 31.0304C274.094 30.5068 273.06 29.7566 272.102 28.7798C271.789 28.4605 271.789 27.9466 272.102 27.6273L274.206 25.4789C274.528 25.1501 275.048 25.1565 275.377 25.4789C275.945 26.0439 276.558 26.5004 277.216 26.8516C278.097 27.3241 279.125 27.5571 280.293 27.5571C281.356 27.5571 282.18 27.3592 282.767 26.9665C283.352 26.5707 283.645 26.0248 283.645 25.3225C283.645 24.6872 283.454 24.17 283.071 23.7774C282.688 23.3815 282.183 23.0431 281.554 22.759C280.925 22.4749 280.236 22.2004 279.479 21.9354C278.723 21.6736 277.976 21.3704 277.232 21.032C276.488 20.6936 275.802 20.2658 275.173 19.7486C274.544 19.2347 274.04 18.5866 273.656 17.8077C273.273 17.0288 273.082 16.0487 273.082 14.8644C273.082 13.4406 273.417 12.2115 274.087 11.1804C274.758 10.1493 275.687 9.36716 276.878 8.83084C278.068 8.29453 279.441 8.02637 280.993 8.02637C282.544 8.02637 284.006 8.3105 285.315 8.88193C286.416 9.36078 287.355 9.98966 288.134 10.7654C288.373 11.0048 288.376 11.3975 288.14 11.6401L285.736 14.0918C285.5 14.3312 285.117 14.3376 284.871 14.1078C284.332 13.597 283.789 13.2044 283.243 12.9266C282.55 12.5755 281.771 12.3999 280.9 12.3999C280.028 12.3999 279.336 12.5691 278.825 12.9107C278.314 13.2522 278.059 13.7375 278.059 14.3727C278.059 14.9633 278.25 15.4422 278.633 15.8029C279.016 16.1637 279.521 16.4765 280.15 16.7415C280.775 17.0032 281.468 17.2682 282.225 17.53C282.978 17.7917 283.728 18.1014 284.472 18.4494C285.216 18.8005 285.902 19.2442 286.531 19.7806C287.157 20.3169 287.664 20.9968 288.048 21.8205C288.431 22.6441 288.622 23.6561 288.622 24.8628C288.622 27.0783 287.856 28.8149 286.327 30.0758C284.795 31.3368 282.678 31.9657 279.977 31.9657V31.9689Z" fill="#1C354B"/>
<path d="M296.915 30.6691L305.352 8.74093C305.448 8.49192 305.687 8.3291 305.952 8.3291H309.598C309.866 8.3291 310.102 8.4951 310.198 8.7441L318.546 30.6723C318.706 31.0937 318.396 31.5438 317.946 31.5438H314.038C313.764 31.5438 313.521 31.3714 313.432 31.1128L307.121 13.1304C306.974 12.7122 307.283 12.2748 307.727 12.2748C308.171 12.2748 308.481 12.7154 308.334 13.1336L301.933 31.116C301.841 31.3714 301.598 31.5438 301.327 31.5438H297.515C297.065 31.5438 296.752 31.0905 296.915 30.6691ZM301.652 26.6914V23.7673C301.652 23.4129 301.94 23.1256 302.294 23.1256H313.291C313.646 23.1256 313.933 23.4129 313.933 23.7673V26.6914C313.933 27.0458 313.646 27.3331 313.291 27.3331H302.294C301.94 27.3331 301.652 27.0458 301.652 26.6914Z" fill="#3396D5"/>
<path d="M323.18 30.8989V8.97076C323.18 8.61642 323.467 8.3291 323.821 8.3291H327.544C327.898 8.3291 328.185 8.61642 328.185 8.97076V30.8989C328.185 31.2533 327.898 31.5406 327.544 31.5406H323.821C323.467 31.5406 323.18 31.2533 323.18 30.8989Z" fill="#3396D5"/>
</svg>
